<?xml version="1.0" encoding="UTF-8"?>
<svg xmlns="http://www.w3.org/2000/svg" width="32" height="32" viewBox="0 0 32 32">
  <defs>
    <linearGradient id="case" x1="0" y1="0" x2="0" y2="1">
      <stop offset="0" stop-color="#ffffff"/>
      <stop offset="1" stop-color="#b8bcc2"/>
    </linearGradient>
    <linearGradient id="screen" x1="0" y1="0" x2="0" y2="1">
      <stop offset="0" stop-color="#58bff2"/>
      <stop offset="1" stop-color="#17679e"/>
    </linearGradient>
  </defs>
  <rect x="3.5" y="4.5" width="20" height="16" rx="1.5" fill="url(#case)" stroke="#747980"/>
  <rect x="6" y="7" width="15" height="10" fill="#253443" stroke="#5c6268"/>
  <path d="M11 21v3h-3v2h11v-2h-3v-3" fill="url(#case)" stroke="#747980" stroke-linejoin="round"/>
  <rect x="10.5" y="10.5" width="18" height="14" rx="1.5" fill="url(#case)" stroke="#565c63"/>
  <rect x="13" y="13" width="13" height="8.5" fill="url(#screen)" stroke="#31536a"/>
  <path d="M18 25v2.5h-3v1.5h10v-1.5h-3V25" fill="url(#case)" stroke="#565c63" stroke-linejoin="round"/>
  <path d="M14 14h11" stroke="#d9271a" stroke-width="1.2"/>
  <path d="M14 15.7h11" stroke="#eab616" stroke-width="1.2"/>
  <path d="M14 17.4h11" stroke="#3aa54a" stroke-width="1.2"/>
  <path d="M14 19.1h11" stroke="#38aaca" stroke-width="1.2"/>
  <path d="M12 11h15" stroke="#ffffff" stroke-opacity=".7"/>
</svg>
